<?xml version="1.0" standalone="no"?>
<!DOCTYPE svg PUBLIC "-//W3C//DTD SVG 20010904//EN"
 "http://www.w3.org/TR/2001/REC-SVG-20010904/DTD/svg10.dtd">
<svg version="1.0" xmlns="http://www.w3.org/2000/svg"
 width="900.000000pt" height="489.000000pt" viewBox="0 0 900.000000 489.000000"
 preserveAspectRatio="xMidYMid meet">
<metadata>
Created by potrace 1.10, written by Peter Selinger 2001-2011
</metadata>
<g transform="translate(0.000000,489.000000) scale(0.100000,-0.100000)"
fill="#f0ff00" stroke="none">
<path d="M410 4839 c-24 -10 -40 -26 -40 -41 0 -11 56 -38 63 -31 4 3 32 8 63
12 59 6 83 24 71 55 -5 12 -20 16 -69 15 -35 0 -74 -5 -88 -10z"/>
<path d="M720 4837 c0 -7 7 -23 16 -35 13 -19 24 -22 78 -22 52 0 66 4 84 23
39 42 30 47 -78 47 -74 0 -100 -3 -100 -13z"/>
<path d="M1070 4820 c0 -36 18 -42 110 -38 l65 3 3 33 3 32 -90 0 -91 0 0 -30z"/>
<path d="M1415 4841 c-3 -5 0 -21 6 -35 11 -24 17 -26 79 -26 57 0 70 3 88 23
39 41 30 47 -72 47 -52 0 -97 -4 -101 -9z"/>
<path d="M1756 4841 c-7 -11 4 -43 18 -53 16 -11 125 -9 147 2 11 6 19 21 19
35 0 25 -1 25 -89 25 -50 0 -92 -4 -95 -9z"/>
<path d="M2095 4840 c-3 -5 2 -21 11 -35 15 -23 23 -25 84 -25 64 0 70 2 89
29 11 15 18 31 14 35 -10 10 -191 7 -198 -4z"/>
<path d="M2444 4836 c-3 -8 -1 -24 6 -35 9 -18 20 -21 80 -21 73 0 100 14 100
51 0 17 -8 19 -90 19 -69 0 -92 -3 -96 -14z"/>
<path d="M2785 4840 c-4 -6 1 -22 9 -35 15 -23 23 -25 86 -25 60 0 71 3 84 22
31 43 23 48 -78 48 -55 0 -98 -4 -101 -10z"/>
<path d="M3133 4834 c-13 -34 11 -49 82 -52 72 -3 105 12 105 50 0 16 -9 18
-90 18 -75 0 -92 -3 -97 -16z"/>
<path d="M3477 4843 c-12 -11 -8 -31 9 -47 11 -12 35 -16 84 -16 60 0 71 3 80
21 22 40 7 49 -83 49 -46 0 -87 -3 -90 -7z"/>
<path d="M3818 4844 c-3 -3 -1 -18 5 -35 11 -28 13 -29 83 -29 65 0 73 2 88
25 9 13 16 29 16 35 0 10 -182 15 -192 4z"/>
<path d="M4160 4825 c0 -33 27 -45 103 -45 70 0 93 14 82 50 -6 18 -14 20 -96
20 -88 0 -89 0 -89 -25z"/>
<path d="M4497 4844 c-4 -4 3 -20 14 -35 19 -27 25 -29 83 -29 52 0 66 4 84
23 39 41 30 47 -76 47 -54 0 -102 -3 -105 -6z"/>
<path d="M4847 4838 c-2 -7 -1 -23 4 -35 8 -21 15 -23 78 -23 88 0 101 5 101
41 l0 29 -89 0 c-62 0 -90 -4 -94 -12z"/>
<path d="M5187 4844 c-7 -8 11 -46 27 -56 6 -4 38 -8 72 -8 52 0 63 3 82 25
12 14 22 30 22 35 0 11 -192 14 -203 4z"/>
<path d="M5533 4834 c-13 -34 11 -49 80 -52 78 -3 107 9 107 43 0 25 -1 25
-90 25 -75 0 -92 -3 -97 -16z"/>
<path d="M5875 4840 c-4 -6 1 -22 9 -35 15 -23 23 -25 86 -25 60 0 71 3 84 22
31 43 23 48 -78 48 -55 0 -98 -4 -101 -10z"/>
<path d="M6225 4840 c-3 -5 -3 -21 1 -35 6 -24 9 -25 79 -25 75 0 105 15 105
53 0 15 -13 17 -89 17 -50 0 -92 -4 -96 -10z"/>
<path d="M6565 4840 c-11 -18 6 -50 29 -56 12 -3 48 -4 80 -2 62 3 85 20 73
52 -5 13 -22 16 -91 16 -47 0 -88 -5 -91 -10z"/>
<path d="M6905 4840 c-4 -6 1 -22 9 -35 15 -22 24 -25 81 -25 53 0 68 4 85 22
38 41 28 48 -74 48 -55 0 -98 -4 -101 -10z"/>
<path d="M7250 4827 c0 -38 19 -47 96 -47 78 0 101 13 89 50 -6 18 -14 20 -96
20 -86 0 -89 -1 -89 -23z"/>
<path d="M7590 4837 c0 -7 7 -23 16 -35 13 -19 24 -22 83 -22 62 0 70 2 85 25
9 13 16 29 16 35 0 6 -38 10 -100 10 -74 0 -100 -3 -100 -13z"/>
<path d="M7936 4841 c-7 -11 4 -43 18 -53 13 -9 128 -10 150 -2 10 4 16 18 16
35 l0 29 -89 0 c-50 0 -92 -4 -95 -9z"/>
<path d="M8275 4840 c-3 -5 2 -21 11 -35 15 -23 23 -25 83 -25 59 0 70 3 89
25 12 14 22 30 22 35 0 13 -197 13 -205 0z"/>
<path d="M8625 4800 c-10 -30 3 -59 33 -74 15 -8 37 -24 50 -36 29 -28 76 -24
80 6 2 16 -10 32 -41 58 -24 20 -49 36 -54 36 -6 0 -16 7 -23 15 -17 21 -37
19 -45 -5z"/>
<path d="M157 4680 c-59 -64 -70 -83 -55 -98 13 -13 68 -16 68 -4 0 4 12 21
28 38 66 74 64 71 52 93 -17 33 -43 25 -93 -29z"/>
<path d="M8861 4547 c-8 -10 -7 -29 5 -73 16 -64 46 -104 77 -104 16 0 18 5
14 33 -8 48 -31 130 -40 145 -11 16 -42 15 -56 -1z"/>
<path d="M47 4423 c-6 -10 -11 -95 -9 -145 2 -31 6 -38 22 -38 28 0 40 30 40
98 0 44 -5 63 -18 75 -20 19 -29 21 -35 10z"/>
<path d="M8906 4205 c-12 -12 -16 -35 -16 -90 0 -72 0 -73 30 -84 39 -13 42
-7 38 100 -2 68 -6 84 -19 87 -9 2 -24 -4 -33 -13z"/>
<path d="M45 4070 c-13 -21 -17 -125 -6 -152 32 -84 79 35 52 132 -7 27 -35
38 -46 20z"/>
<path d="M8903 3864 c-9 -4 -13 -30 -13 -78 0 -77 15 -106 54 -106 15 0 16 11
14 93 -3 84 -5 92 -23 94 -11 1 -26 -1 -32 -3z"/>
<path d="M40 3733 c-1 -4 -3 -33 -5 -63 -5 -79 3 -120 26 -120 26 0 39 31 38
87 -1 70 -11 98 -37 101 -12 2 -22 0 -22 -5z"/>
<path d="M8901 3511 c-6 -11 -11 -49 -11 -84 0 -68 13 -92 47 -85 16 3 18 15
18 93 0 85 -1 90 -22 93 -14 2 -26 -4 -32 -17z"/>
<path d="M36 3359 c-15 -77 0 -159 29 -159 21 0 35 41 35 101 0 59 -13 89 -39
89 -13 0 -20 -10 -25 -31z"/>
<path d="M8920 3180 c-24 -5 -25 -10 -28 -80 -3 -67 -1 -77 19 -92 42 -35 49
-25 49 70 0 48 -4 92 -8 98 -4 6 -18 8 -32 4z"/>
<path d="M39 3043 c0 -4 -2 -21 -4 -38 -2 -16 -1 -56 2 -88 5 -52 8 -58 27
-55 16 2 23 13 30 50 13 67 -2 132 -32 136 -12 2 -22 0 -23 -5z"/>
<path d="M8902 2828 c-7 -7 -12 -41 -12 -90 0 -75 1 -78 26 -84 14 -4 30 -2
35 3 5 5 9 48 7 94 -3 75 -5 84 -23 87 -11 1 -26 -3 -33 -10z"/>
<path d="M44 2699 c-3 -6 -7 -46 -8 -90 -1 -94 13 -119 46 -79 17 21 20 35 15
88 -6 75 -32 115 -53 81z"/>
<path d="M8903 2484 c-9 -4 -13 -30 -13 -79 0 -66 2 -74 25 -89 43 -28 46 -22
43 77 -3 84 -5 92 -23 94 -11 1 -26 -1 -32 -3z"/>
<path d="M40 2353 c-1 -5 -3 -33 -5 -63 -5 -68 6 -114 28 -118 32 -6 50 102
27 162 -9 24 -49 38 -50 19z"/>
<path d="M8896 2135 c-10 -28 -7 -163 5 -170 5 -4 21 -4 35 -1 24 6 25 8 22
94 -3 86 -3 87 -29 90 -17 2 -29 -3 -33 -13z"/>
<path d="M38 2004 c-9 -9 3 -168 14 -179 6 -7 16 -2 29 14 22 27 27 139 7 159
-13 13 -41 16 -50 6z"/>
<path d="M8913 1800 c-21 -9 -23 -16 -23 -84 0 -67 2 -75 25 -90 13 -9 29 -16
35 -16 14 0 9 192 -5 196 -5 1 -20 -1 -32 -6z"/>
<path d="M36 1633 c-3 -21 -2 -63 2 -93 6 -46 10 -55 27 -55 46 0 45 176 -2
183 -18 3 -22 -3 -27 -35z"/>
<path d="M8894 1447 c-3 -8 -4 -47 -2 -88 l3 -74 33 -3 32 -3 0 90 0 91 -30 0
c-17 0 -33 -6 -36 -13z"/>
<path d="M44 1318 c-4 -7 -8 -47 -8 -91 0 -85 14 -111 44 -81 21 20 20 161 -1
175 -19 12 -26 11 -35 -3z"/>
<path d="M8913 1110 c-21 -9 -23 -16 -23 -84 0 -67 2 -75 25 -90 13 -9 29 -16
35 -16 14 0 9 192 -5 196 -5 1 -20 -1 -32 -6z"/>
<path d="M51 980 c-16 -9 -23 -132 -10 -167 26 -69 69 24 55 120 -7 46 -22 62
-45 47z"/>
<path d="M8918 772 c-23 -5 -30 -33 -26 -112 l3 -65 33 -3 32 -3 0 89 c0 92
-5 103 -42 94z"/>
<path d="M39 623 c-8 -112 -6 -155 8 -169 13 -13 18 -13 29 -2 20 20 29 122
14 158 -14 33 -49 42 -51 13z"/>
<path d="M8893 425 c-13 -9 -23 -24 -23 -33 0 -10 -9 -34 -20 -55 -11 -20 -20
-45 -20 -56 0 -25 25 -44 47 -37 24 8 64 98 66 149 2 47 -14 57 -50 32z"/>
<path d="M84 286 c-6 -15 17 -58 45 -87 9 -9 26 -28 38 -43 26 -29 58 -34 67
-10 10 25 8 30 -30 76 -19 23 -42 51 -50 61 -17 21 -62 23 -70 3z"/>
<path d="M8645 115 c-69 -47 -77 -54 -73 -73 5 -28 37 -25 106 10 87 43 95 53
66 82 -22 23 -42 19 -99 -19z"/>
<path d="M369 71 c-31 -25 -19 -51 23 -51 18 0 57 -3 86 -6 51 -7 52 -6 52 18
0 21 -7 27 -42 36 -87 22 -95 22 -119 3z"/>
<path d="M4217 62 c-49 -2 -70 -7 -74 -18 -9 -25 8 -32 87 -36 l75 -3 0 29 c0
34 2 33 -88 28z"/>
<path d="M710 35 c0 -25 1 -25 78 -25 82 0 111 12 91 37 -8 9 -37 13 -90 13
-78 0 -79 0 -79 -25z"/>
<path d="M1054 45 c-11 -27 7 -35 86 -35 78 0 93 7 83 38 -7 19 -162 17 -169
-3z"/>
<path d="M1396 44 c-11 -28 4 -34 84 -34 57 0 79 4 83 14 10 25 -16 36 -89 36
-56 0 -73 -3 -78 -16z"/>
<path d="M1733 44 c-10 -25 8 -32 92 -36 l80 -3 3 28 3 27 -86 0 c-68 0 -87
-3 -92 -16z"/>
<path d="M2086 44 c-11 -28 7 -35 85 -32 66 3 74 5 74 23 0 18 -8 20 -76 23
-65 2 -78 0 -83 -14z"/>
<path d="M2424 45 c-11 -28 11 -36 92 -33 71 3 79 5 79 23 0 18 -8 20 -83 23
-68 2 -83 0 -88 -13z"/>
<path d="M2774 45 c-11 -27 7 -35 81 -35 75 0 90 6 79 34 -9 22 -152 23 -160
1z"/>
<path d="M3110 35 l0 -26 88 3 c79 3 87 5 87 23 0 18 -8 20 -87 23 l-88 3 0
-26z"/>
<path d="M3467 53 c-4 -3 -7 -15 -7 -25 0 -16 9 -18 79 -18 79 0 94 7 84 38
-5 13 -144 18 -156 5z"/>
<path d="M3797 47 c-11 -30 9 -38 89 -35 71 3 79 5 79 23 0 18 -8 20 -81 23
-62 2 -83 -1 -87 -11z"/>
<path d="M4487 47 c-11 -30 9 -38 89 -35 71 3 79 5 79 23 0 18 -8 20 -81 23
-62 2 -83 -1 -87 -11z"/>
<path d="M4830 45 c-22 -26 0 -35 86 -35 83 0 84 0 84 25 0 25 -1 25 -79 25
-57 0 -82 -4 -91 -15z"/>
<path d="M5174 45 c-11 -28 10 -36 87 -33 66 3 74 5 74 23 0 18 -8 20 -78 23
-64 2 -78 0 -83 -13z"/>
<path d="M5514 45 c-11 -28 11 -36 92 -33 71 3 79 5 79 23 0 18 -8 20 -83 23
-68 2 -83 0 -88 -13z"/>
<path d="M5864 45 c-11 -28 10 -36 87 -33 66 3 74 5 74 23 0 18 -8 20 -78 23
-64 2 -78 0 -83 -13z"/>
<path d="M6197 47 c-12 -30 8 -38 94 -35 76 3 84 5 84 23 0 18 -8 20 -86 23
-66 2 -88 0 -92 -11z"/>
<path d="M6557 53 c-4 -3 -7 -15 -7 -25 0 -15 9 -18 65 -19 36 -1 71 -2 78 -3
6 -1 13 11 15 27 l3 27 -74 0 c-40 0 -77 -3 -80 -7z"/>
<path d="M6890 35 c0 -25 1 -25 78 -25 82 0 111 12 91 37 -8 9 -37 13 -90 13
-78 0 -79 0 -79 -25z"/>
<path d="M7240 45 c-21 -26 0 -35 80 -35 78 0 93 7 83 38 -7 18 -147 16 -163
-3z"/>
<path d="M7578 48 c-12 -31 4 -38 82 -38 80 0 101 9 80 35 -16 19 -156 21
-162 3z"/>
<path d="M7918 48 c-12 -31 4 -38 88 -38 83 0 84 0 84 25 0 25 -1 25 -84 25
-58 0 -85 -4 -88 -12z"/>
<path d="M8266 44 c-11 -28 7 -35 85 -32 66 3 74 5 74 23 0 18 -8 20 -76 23
-65 2 -78 0 -83 -14z"/>
</g>
</svg>
